<svg fill="#fff" version="1.1" id="Capa_1" xmlns="http://www.w3.org/2000/svg" xmlns:xlink="http://www.w3.org/1999/xlink" width="800px" height="800px" viewBox="0 0 799.85 799.85" xml:space="preserve">
<g>
	<path d="M421.898,799.548c20.867-1.141,41.312-3.889,61.214-8.115c0,0,0.955-0.025,1.202-0.264
		C664.442,752.325,799.85,591.803,799.85,400.229c0-191.573-135.407-352.092-315.535-390.938c-0.247-0.245-0.479-0.497-0.725-0.742
		l-0.479,0.482c-26.845-5.703-54.665-8.729-83.188-8.729c-28.514,0-56.34,3.026-83.18,8.729l-0.479-0.482
		c-0.25,0.245-0.483,0.497-0.724,0.742C135.414,48.133,0,208.654,0,400.229c0,191.573,135.415,352.096,315.542,390.939
		c0.247,0.248,1.195,0.264,1.195,0.264c19.905,4.228,40.347,6.976,61.207,8.115H421.898z M250.717,87.505
		c-59.037,86.247-90.997,185.598-95.791,286.03H54.512C64.187,247.273,141.73,139.717,250.717,87.505z M54.512,426.92h100.415
		c4.794,100.438,36.754,199.792,95.797,286.039C141.73,660.741,64.187,553.187,54.512,426.92z M373.23,745.641
		c-10.484-0.8-20.843-2.053-31.052-3.775c-83.171-88.969-127.781-201.106-133.8-314.944h164.853L373.23,745.641L373.23,745.641z
		 M373.23,373.535H208.378c6.02-113.834,50.629-225.975,133.794-314.941c10.211-1.72,20.573-2.971,31.059-3.778V373.535z
		 M745.338,373.535H644.93c-4.801-100.433-36.754-199.78-95.791-286.027C658.12,139.72,735.662,247.275,745.338,373.535z
		 M426.612,54.816c10.492,0.807,20.854,2.058,31.065,3.778c83.164,88.966,127.774,201.107,133.796,314.941H426.612V54.816z
		 M457.672,741.864c-10.209,1.724-20.567,2.977-31.06,3.775V426.92h164.86C585.452,540.758,540.842,652.896,457.672,741.864z
		 M549.133,712.948c59.043-86.245,90.996-185.596,95.797-286.028h100.408C735.662,553.187,658.12,660.741,549.133,712.948z"/>
</g>
</svg>
